<?xml version="1.0" encoding="UTF-8"?> <svg xmlns="http://www.w3.org/2000/svg" xmlns:xlink="http://www.w3.org/1999/xlink" version="1.1" id="Layer_1" x="0px" y="0px" viewBox="0 0 300 80" style="enable-background:new 0 0 300 80;" xml:space="preserve"> <style type="text/css"> .st0{fill:#343399;} .st1{fill:#444444;} </style> <path class="st0" d="M65.9,33c-7.3,3-14.6,5.9-22,8.9c0,0.1,0.1,0.2,0.1,0.3c7-2.4,14-4.8,21-7.2c0,0.1,0.1,0.1,0.1,0.2 C60,38.3,55,41.4,49.9,44.5c0.1,0.1,0.1,0.2,0.1,0.3c5.2-2.9,10.5-5.7,15.9-8.7c-0.1,0.6-0.4,1-0.3,1.3c0.3,1-0.3,1.4-1,1.7 c-1,0.4-1.4,1-1.5,2.1c-0.1,0.8-0.9,1.6-1.6,2.2c-0.7,0.7-1.1,1.2-0.2,2c0.6,0.5,0.4,1.1-0.2,1.5c-1.2,0.7-1.6,1.6-1.1,3 c0.4,1.2-0.6,2.3-1.9,2.4c-3.4,0.1-6.8,0.1-10.2,0.1c-6.1,0.1-12.2,0.1-18.3,0.2c-1.9,0-1.9,0-1.9-1.9c0-2-0.1-4-0.1-6 c0-1.1-0.5-1.7-1.6-1.6c-1.3,0.1-1.7-0.4-1.8-1.8c-0.4-6.5-1-12.9-1.5-19.4C22.1,15.8,21,10,19,4.4c-0.1-0.2,0-0.5-0.1-1 c1.9,0,3.6,0,5.4,0C38,3.3,51.6,3.2,65.3,3.2c1,0,2,0.6,2.8,1.2c0.8,0.6,0.5,1.6-0.2,2.3c-0.7,0.8-1.5,1.6-2.2,2.4 c-0.2,0.3-0.4,0.9-0.2,1.3c0.1,0.2,0.7,0.4,1.1,0.4c1.5-0.1,2.9-0.3,4.4-0.3c2.2-0.1,2.7,0.5,2,2.5c-0.7,2.1-1.5,4.2-2.4,6.2 c-0.2,0.5-0.5,1.1-0.9,1.4c-0.9,0.7-1.6,1.4-1,2.8c-3-3.2-6.1-6.3-9.1-9.5c-0.1,0.1-0.1,0.1-0.2,0.2c3,3.7,5.9,7.4,8.8,11.1 c-0.1,0.1-0.1,0.2-0.2,0.3c-6.5-2.1-12.9-4.2-19.4-6.2c0,0.1-0.1,0.2-0.1,0.3c6.2,2.4,12.5,4.8,18.7,7.2c0,0.1,0,0.2-0.1,0.3 c-9.6-1-19.2-1.9-28.8-2.9c0,0.1,0,0.2,0,0.3c9.3,1.4,18.7,2.8,28,4.1c0,0,0,0.1,0,0.1c-10.4,0.5-20.7,1-31.1,1.5c0,0.1,0,0.2,0,0.3 c10.4,0,20.7,0,31.1,0c0,0.1,0,0.2,0,0.3c-9,1.9-18,3.9-27,5.8c0,0.1,0,0.2,0.1,0.3c8.9-1.3,17.7-2.6,26.6-3.9 C65.8,32.9,65.9,33,65.9,33z"></path> <g> <path class="st1" d="M118.9,51.9h-25V50h2.3c3.9,0,5.9-1.2,5.9-3.6c0-0.6-0.5-1.9-1.6-4c-0.7-1.4-1.4-2.9-2.2-4.3H80 c-2,4-3,6.4-3,7.3c0,3.1,2,4.6,6,4.6h2.8v1.8H63.8V50H65c2.8,0,5.2-1.2,7.4-3.5c1.5-1.6,3.2-4.4,5.3-8.3l14.5-27.6h0.7l16.9,32.5 c1.2,2.3,2.2,3.9,3,4.8c1.3,1.4,2.8,2.1,4.6,2.1h1.6L118.9,51.9L118.9,51.9z M97.4,36.3l-8.1-16.5l-8.4,16.5H97.4z"></path> <path class="st1" d="M171.9,31.6c0,5.7-2.2,10.5-6.6,14.4c-4.4,3.9-9.9,5.9-16.4,5.9h-28.4V50h2.9c4,0,6-1.8,6-5.3V18.6 c0-3.5-1.8-5.3-5.5-5.3h-3.5v-1.8h28.3c6.4,0,11.8,1.7,16.1,5.1C169.5,20.2,171.9,25.2,171.9,31.6z M161.5,31.4 c0-7.3-1.3-12.3-3.9-15c-2.1-2.1-5.7-3.2-10.8-3.2h-9.6V50h9.6c5,0,8.6-1.3,10.8-3.8C160.2,43.4,161.5,38.5,161.5,31.4z"></path> <path class="st1" d="M223.8,28.9H222c-1-10.5-6.4-15.7-16.2-15.7h-10.9v16.9h3.9c3,0,5.3-0.6,7.1-1.8c2-1.3,3-3.3,3-5.8v-2.4h2 v23.2h-2.1c0-0.5,0.1-1.3,0.1-2.3c0-2.8-0.9-5-2.8-6.6c-1.9-1.6-4.3-2.4-7.3-2.4h-3.9v12.9c0,3.5,2.1,5.2,6.4,5.2h4v1.8H178V50h2.9 c4,0,6-1.8,6-5.3V18.6c0-3.5-1.8-5.3-5.5-5.3H178v-1.8h45.8V28.9z"></path> <path class="st1" d="M279.3,51.9h-25V50h2.3c3.9,0,5.9-1.2,5.9-3.6c0-0.6-0.5-1.9-1.6-4c-0.7-1.4-1.4-2.9-2.2-4.3h-18.3 c-2,4-3,6.4-3,7.3c0,3.1,2,4.6,6,4.6h2.8v1.8h-22.1V50h1.2c2.8,0,5.2-1.2,7.4-3.5c1.5-1.6,3.2-4.4,5.3-8.3l14.5-27.6h0.7l16.9,32.5 c1.2,2.3,2.2,3.9,3,4.8c1.3,1.4,2.8,2.1,4.6,2.1h1.6L279.3,51.9L279.3,51.9z M257.8,36.3l-8.1-16.5l-8.4,16.5H257.8z"></path> </g> <g> <path class="st1" d="M78.9,65.9H74v-0.4h0.4c0.8,0,1.2-0.2,1.2-0.7c0-0.1-0.1-0.4-0.3-0.8c-0.1-0.3-0.3-0.6-0.4-0.8h-3.6 c-0.4,0.8-0.6,1.3-0.6,1.4c0,0.6,0.4,0.9,1.2,0.9h0.6v0.4H68v-0.4h0.2c0.5,0,1-0.2,1.5-0.7c0.3-0.3,0.6-0.9,1-1.6l2.8-5.4h0.1 l3.3,6.4c0.2,0.4,0.4,0.8,0.6,0.9c0.3,0.3,0.6,0.4,0.9,0.4h0.3V65.9z M74.7,62.9l-1.6-3.3l-1.6,3.3H74.7z"></path> <path class="st1" d="M89.7,65.9h-3.2c-0.3-0.4-0.6-1-0.9-1.6c-0.3-0.6-0.6-1.1-0.8-1.5c-0.3-0.5-0.5-0.7-0.7-0.9s-0.5-0.2-0.9-0.2 h-1v2.8c0,0.7,0.4,1,1.3,1h0.7v0.4h-5.3v-0.4h0.6c0.8,0,1.2-0.4,1.2-1v-5.2c0-0.7-0.4-1-1.1-1h-0.7V58h5.7c1.2,0,2.1,0.1,2.7,0.4 c0.7,0.3,1.1,0.8,1.1,1.6c0,0.5-0.4,1-1.1,1.3c-0.7,0.3-1.6,0.5-2.8,0.5c0.4,0.4,0.9,0.5,1.5,0.5c0.1,0,0.3,0,0.4,0 c0.8,1.5,1.3,2.3,1.4,2.5c0.4,0.6,0.9,0.9,1.5,0.9h0.4V65.9z M86.3,59.8c0-0.6-0.2-1-0.6-1.2c-0.3-0.2-0.7-0.3-1.4-0.3h-2.3v3h1.7 c1,0,1.7-0.1,2.1-0.4C86.2,60.7,86.3,60.4,86.3,59.8z"></path> <path class="st1" d="M101.3,65.9h-5.1v-0.4h0.7c0.2,0,0.4-0.1,0.6-0.2c0.1-0.1,0.2-0.2,0.2-0.3c0-0.1-0.1-0.3-0.3-0.5l-2.5-2.9 l-1.5,1.1v1.8c0,0.3,0.1,0.6,0.4,0.8c0.2,0.2,0.6,0.3,1,0.3h0.4v0.4h-5.1v-0.4h0.6c0.8,0,1.2-0.4,1.2-1v-5.2c0-0.7-0.4-1-1.1-1 h-0.7V58H95v0.4h-0.5c-0.8,0-1.1,0.3-1.1,1v3l3.1-2.3c0.4-0.3,0.6-0.6,0.6-1c0-0.5-0.4-0.7-1.1-0.7h-0.1V58h5.1v0.4h-0.6 c-0.5,0-1,0.2-1.6,0.5c-0.3,0.1-0.8,0.6-1.7,1.2l-1,0.7c0.8,0.9,1.9,2.2,3.3,3.8c0.3,0.3,0.5,0.6,0.7,0.7c0.3,0.2,0.5,0.3,0.8,0.3 h0.5L101.3,65.9L101.3,65.9z"></path> <path class="st1" d="M111.3,65.9h-4.9v-0.4h0.4c0.8,0,1.2-0.2,1.2-0.7c0-0.1-0.1-0.4-0.3-0.8c-0.1-0.3-0.3-0.6-0.4-0.8h-3.6 c-0.4,0.8-0.6,1.3-0.6,1.4c0,0.6,0.4,0.9,1.2,0.9h0.6v0.4h-4.4v-0.4h0.2c0.5,0,1-0.2,1.5-0.7c0.3-0.3,0.6-0.9,1-1.6l2.8-5.4h0.1 l3.3,6.4c0.2,0.4,0.4,0.8,0.6,0.9c0.3,0.3,0.6,0.4,0.9,0.4h0.3V65.9z M107.1,62.9l-1.6-3.3l-1.7,3.3H107.1z"></path> <path class="st1" d="M122.6,58.3h-0.7c-0.4,0-0.7,0.2-0.9,0.6c-0.1,0.3-0.2,0.7-0.2,1.3V66l-0.3-0.1l-7.1-6.7v4.5 c0,1.3,0.4,1.9,1.3,1.9h0.7v0.4h-4.2v-0.4h0.6c0.4,0,0.7-0.2,1-0.7c0.2-0.3,0.3-0.7,0.3-1.2v-4.3c0-0.7-0.4-1-1.2-1h-0.7V58h3.2 l6,5.7v-3.4c0-1.3-0.4-1.9-1.1-1.9h-0.8V58h4.2V58.3z"></path> <path class="st1" d="M131.8,63.7c0,0.7-0.4,1.3-1.3,1.8c-0.7,0.4-1.6,0.6-2.6,0.6c-0.7,0-1.2,0-1.7-0.1c-0.5-0.1-1-0.3-1.5-0.6 l-1,0.6h-0.3v-3.2h0.3c0.4,1.9,1.8,2.9,4.2,2.9c0.6,0,1.2-0.1,1.6-0.3c0.5-0.2,0.8-0.6,0.8-1c0-0.8-0.6-1.3-1.7-1.6 c-1.1-0.2-2.1-0.5-3.2-0.7c-1.1-0.4-1.7-1-1.7-2c0-0.7,0.3-1.2,1-1.6c0.6-0.4,1.5-0.6,2.4-0.6c0.7,0,1.2,0.1,1.7,0.2 c0.3,0.1,0.7,0.3,1.1,0.5l1-0.5h0.3v3h-0.3c-0.3-1.8-1.5-2.7-3.7-2.7c-0.5,0-1,0.1-1.4,0.3c-0.5,0.2-0.8,0.5-0.8,0.9 c0,0.6,0.6,1.1,1.8,1.4c1.1,0.3,2.2,0.5,3.3,0.8C131.2,62,131.8,62.7,131.8,63.7z"></path> <path class="st1" d="M142.3,65.9h-4.9v-0.4h0.4c0.8,0,1.2-0.2,1.2-0.7c0-0.1-0.1-0.4-0.3-0.8c-0.1-0.3-0.3-0.6-0.4-0.8h-3.6 c-0.4,0.8-0.6,1.3-0.6,1.4c0,0.6,0.4,0.9,1.2,0.9h0.6v0.4h-4.4v-0.4h0.2c0.5,0,1-0.2,1.5-0.7c0.3-0.3,0.6-0.9,1-1.6l2.8-5.4h0.1 l3.3,6.4c0.2,0.4,0.4,0.8,0.6,0.9c0.3,0.3,0.6,0.4,0.9,0.4h0.3V65.9z M138.1,62.9l-1.6-3.3l-1.7,3.3H138.1z"></path> <path class="st1" d="M150.8,63.7c0,0.7-0.4,1.3-1.3,1.8c-0.7,0.4-1.6,0.6-2.6,0.6c-0.7,0-1.2,0-1.7-0.1c-0.5-0.1-1-0.3-1.5-0.6 l-1,0.6h-0.3v-3.2h0.3c0.4,1.9,1.8,2.9,4.2,2.9c0.6,0,1.2-0.1,1.6-0.3c0.5-0.2,0.8-0.6,0.8-1c0-0.8-0.6-1.3-1.7-1.6 c-1.1-0.2-2.1-0.5-3.2-0.7c-1.1-0.4-1.7-1-1.7-2c0-0.7,0.3-1.2,1-1.6c0.6-0.4,1.5-0.6,2.4-0.6c0.7,0,1.2,0.1,1.7,0.2 c0.3,0.1,0.7,0.3,1.1,0.5l1-0.5h0.3v3h-0.3c-0.3-1.8-1.5-2.7-3.7-2.7c-0.5,0-1,0.1-1.4,0.3c-0.5,0.2-0.8,0.5-0.8,0.9 c0,0.6,0.6,1.1,1.8,1.4c1.1,0.3,2.2,0.5,3.3,0.8C150.2,62,150.8,62.7,150.8,63.7z"></path> <path class="st1" d="M165.2,61.9c0,1.1-0.4,2.1-1.3,2.8c-0.9,0.8-1.9,1.2-3.2,1.2h-5.6v-0.4h0.6c0.8,0,1.2-0.4,1.2-1v-5.2 c0-0.7-0.4-1-1.1-1h-0.7V58h5.6c1.3,0,2.3,0.3,3.2,1C164.7,59.7,165.2,60.7,165.2,61.9z M163.1,61.9c0-1.4-0.3-2.4-0.8-2.9 c-0.4-0.4-1.1-0.6-2.1-0.6h-1.9v7.2h1.9c1,0,1.7-0.2,2.1-0.7C162.9,64.3,163.1,63.3,163.1,61.9z"></path> <path class="st1" d="M175.3,65.9H166v-0.4h0.6c0.8,0,1.2-0.4,1.2-1v-5.2c0-0.7-0.4-1-1.1-1H166V58h9.2v2.9h-0.4 c-0.1-1-0.4-1.6-0.9-2c-0.5-0.4-1.3-0.6-2.4-0.6h-2.3v3.3h0.9c0.6,0,1-0.1,1.4-0.4c0.4-0.3,0.5-0.7,0.5-1.2v-0.3h0.4v4.5H172v-0.3 c0-0.6-0.2-1-0.5-1.4s-0.8-0.5-1.4-0.5h-0.9v3.6h2.2c1,0,1.7-0.1,2.2-0.4c0.8-0.4,1.3-1.3,1.3-2.5h0.4L175.3,65.9L175.3,65.9z"></path> <path class="st1" d="M186.1,58.3h-0.2c-0.5,0-1,0.2-1.5,0.6c-0.4,0.4-0.8,1-1.2,1.8l-2.5,5.3h-0.2l-3.2-6.4 c-0.2-0.4-0.4-0.7-0.6-0.9c-0.3-0.3-0.7-0.4-1.1-0.4h-0.2V58h4.9v0.4h-0.1c-0.9,0-1.3,0.2-1.3,0.7c0,0.1,0.1,0.3,0.2,0.6l2.2,4.6 l1.7-3.6c0.3-0.6,0.4-1,0.4-1.4c0-0.3-0.1-0.6-0.4-0.7c-0.2-0.1-0.6-0.2-1.1-0.2h-0.3V58h4.6L186.1,58.3L186.1,58.3L186.1,58.3z"></path> <path class="st1" d="M194.9,65.9h-9.4v-0.4h0.6c0.8,0,1.2-0.4,1.2-1v-5.2c0-0.7-0.4-1-1.1-1h-0.7V58h9.2v2.9h-0.4 c-0.1-1-0.4-1.6-0.9-2c-0.5-0.4-1.3-0.6-2.4-0.6h-2.3v3.3h0.9c0.6,0,1-0.1,1.4-0.4c0.4-0.3,0.5-0.7,0.5-1.2v-0.3h0.4v4.5h-0.4v-0.3 c0-0.6-0.2-1-0.5-1.4s-0.8-0.5-1.4-0.5h-0.9v3.6h2.2c1,0,1.7-0.1,2.2-0.4c0.8-0.4,1.3-1.3,1.3-2.5h0.4L194.9,65.9L194.9,65.9z"></path> <path class="st1" d="M205.4,65.9h-9v-0.4h0.6c0.8,0,1.2-0.4,1.2-1v-5.2c0-0.7-0.4-1-1.1-1h-0.7V58h5.4v0.4h-1c-0.8,0-1.1,0.4-1.1,1 v6.2h1.6c1,0,1.8-0.2,2.5-0.7c0.9-0.6,1.3-1.6,1.3-3.1h0.4L205.4,65.9L205.4,65.9z"></path> <path class="st1" d="M215.5,61.9c0,1.2-0.4,2.1-1.4,2.9c-0.9,0.8-2,1.2-3.3,1.2c-1.3,0-2.3-0.4-3.2-1.2c-0.9-0.8-1.3-1.8-1.3-2.9 c0-1.1,0.4-2,1.3-2.8c0.9-0.8,2-1.2,3.2-1.2c1.3,0,2.4,0.4,3.3,1.2C215,59.9,215.5,60.9,215.5,61.9z M213.5,62 c0-1.3-0.2-2.3-0.6-2.8c-0.4-0.6-1.1-0.9-2-0.9c-0.9,0-1.5,0.3-1.9,0.9c-0.4,0.6-0.6,1.5-0.6,2.8c0,1.2,0.2,2.2,0.6,2.8 c0.4,0.6,1.1,0.9,2,0.9C212.6,65.6,213.5,64.4,213.5,62z"></path> <path class="st1" d="M225.7,60.1c0,1.3-1.2,1.9-3.6,1.9h-2.5v2.5c0,0.7,0.4,1,1.3,1h0.5v0.4h-5.1v-0.4h0.6c0.8,0,1.2-0.4,1.2-1 v-5.2c0-0.7-0.4-1-1.1-1h-0.7V58h5.8C224.5,58,225.7,58.7,225.7,60.1z M223.7,60c0-0.6-0.1-1-0.4-1.3c-0.3-0.2-0.7-0.4-1.3-0.4 h-2.5v3.3h2.5c0.6,0,1-0.1,1.3-0.4C223.6,61,223.7,60.6,223.7,60z"></path> <path class="st1" d="M238.8,65.9h-5.3v-0.4h0.6c0.9,0,1.3-0.3,1.3-1v-5.3l-3.5,6.7h-0.2l-3.2-7.2v5c0,1.3,0.4,1.9,1.2,1.9h0.8v0.4 h-4.2v-0.4h0.6c0.4,0,0.7-0.2,1-0.7c0.2-0.3,0.3-0.8,0.3-1.3v-4.3c0-0.7-0.4-1-1.2-1h-0.7V58h3.5l2.6,6.1l3.2-6.1h3.1v0.4h-0.6 c-0.4,0-0.8,0.1-1,0.3c-0.2,0.1-0.3,0.4-0.3,0.7v5.2c0,0.7,0.4,1,1.3,1h0.5L238.8,65.9L238.8,65.9L238.8,65.9z"></path> <path class="st1" d="M249,65.9h-9.4v-0.4h0.6c0.8,0,1.2-0.4,1.2-1v-5.2c0-0.7-0.4-1-1.1-1h-0.7V58h9.2v2.9h-0.4 c-0.1-1-0.4-1.6-0.9-2c-0.5-0.4-1.3-0.6-2.4-0.6h-2.3v3.3h0.9c0.6,0,1-0.1,1.4-0.4c0.4-0.3,0.5-0.7,0.5-1.2v-0.3h0.4v4.5h-0.4v-0.3 c0-0.6-0.2-1-0.5-1.4c-0.3-0.4-0.8-0.5-1.4-0.5h-0.9v3.6h2.2c1,0,1.7-0.1,2.2-0.4c0.8-0.4,1.3-1.3,1.3-2.5h0.4L249,65.9L249,65.9z"></path> <path class="st1" d="M261.8,58.3h-0.7c-0.4,0-0.7,0.2-0.9,0.6c-0.1,0.3-0.2,0.7-0.2,1.3V66l-0.3-0.1l-7.1-6.7v4.5 c0,1.3,0.4,1.9,1.3,1.9h0.7v0.4h-4.2v-0.4h0.6c0.4,0,0.7-0.2,1-0.7c0.2-0.3,0.3-0.7,0.3-1.2v-4.3c0-0.7-0.4-1-1.2-1h-0.7V58h3.2 l6,5.7v-3.4c0-1.3-0.4-1.9-1.1-1.9h-0.8V58h4.2L261.8,58.3L261.8,58.3z"></path> <path class="st1" d="M271.2,61.5h-0.4c0-2.1-1-3.2-2.9-3.2h-0.4v6.2c0,0.3,0.1,0.6,0.3,0.8s0.5,0.3,0.9,0.3h0.6v0.4h-5.2v-0.4h0.6 c0.8,0,1.2-0.4,1.2-1v-6.2h-0.4c-1.9,0-2.8,1.1-2.8,3.2h-0.4V58h8.8L271.2,61.5L271.2,61.5z"></path> </g> <g> <path class="st1" d="M95,72.2h-0.4c-0.2-2.1-1.3-3.1-3.2-3.1h-2.2v3.3h0.8c0.6,0,1-0.1,1.4-0.4c0.4-0.3,0.6-0.6,0.6-1.1v-0.5h0.4 V75h-0.4c0-0.1,0-0.3,0-0.4c0-0.5-0.2-1-0.6-1.3c-0.4-0.3-0.8-0.5-1.4-0.5h-0.8v2.5c0,0.7,0.4,1,1.3,1h0.8v0.4H86v-0.4h0.6 c0.8,0,1.2-0.4,1.2-1v-5.2c0-0.7-0.4-1-1.1-1H86v-0.4h9L95,72.2L95,72.2z"></path> <path class="st1" d="M101.1,76.7H96v-0.4h0.6c0.8,0,1.2-0.4,1.2-1v-5.2c0-0.7-0.4-1-1.1-1H96v-0.4h5.1v0.4h-0.6 c-0.8,0-1.1,0.3-1.1,1v5.2c0,0.7,0.4,1,1.3,1h0.5L101.1,76.7L101.1,76.7z"></path> <path class="st1" d="M113.4,69.1h-0.7c-0.4,0-0.7,0.2-0.9,0.6c-0.1,0.3-0.2,0.7-0.2,1.3v5.8l-0.3-0.1l-7.1-6.7v4.5 c0,1.3,0.4,1.9,1.3,1.9h0.7v0.4h-4.2v-0.4h0.6c0.4,0,0.7-0.2,1-0.7c0.2-0.3,0.3-0.7,0.3-1.2v-4.3c0-0.7-0.4-1-1.2-1h-0.7v-0.4h3.2 l6,5.7V71c0-1.3-0.4-1.9-1.1-1.9h-0.8v-0.4h4.2V69.1z"></path> <path class="st1" d="M123.4,76.7h-4.9v-0.4h0.4c0.8,0,1.2-0.2,1.2-0.7c0-0.1-0.1-0.4-0.3-0.8c-0.1-0.3-0.3-0.6-0.4-0.8h-3.6 c-0.4,0.8-0.6,1.3-0.6,1.4c0,0.6,0.4,0.9,1.2,0.9h0.6v0.4h-4.4v-0.4h0.2c0.5,0,1-0.2,1.5-0.7c0.3-0.3,0.6-0.9,1-1.6l2.8-5.4h0.1 l3.3,6.4c0.2,0.4,0.4,0.8,0.6,0.9c0.3,0.3,0.6,0.4,0.9,0.4h0.3L123.4,76.7L123.4,76.7L123.4,76.7z M119.2,73.6l-1.6-3.3l-1.7,3.3 H119.2z"></path> <path class="st1" d="M134.7,69.1H134c-0.4,0-0.7,0.2-0.9,0.6c-0.1,0.3-0.2,0.7-0.2,1.3v5.8l-0.3-0.1l-7.1-6.7v4.5 c0,1.3,0.4,1.9,1.3,1.9h0.7v0.4h-4.2v-0.4h0.6c0.4,0,0.7-0.2,1-0.7c0.2-0.3,0.3-0.7,0.3-1.2v-4.3c0-0.7-0.4-1-1.2-1h-0.7v-0.4h3.2 l6,5.7V71c0-1.3-0.4-1.9-1.1-1.9h-0.8v-0.4h4.2V69.1z"></path> <path class="st1" d="M144,73.6c-0.1,1-0.6,1.8-1.3,2.4c-0.8,0.6-1.8,0.9-3,0.9c-1.2,0-2.3-0.4-3.1-1.2c-0.9-0.8-1.3-1.8-1.3-2.9 s0.4-2.1,1.3-2.9c0.9-0.8,2-1.2,3.2-1.2c1,0,2,0.3,2.8,1l1-0.8h0.4v3.4h-0.3c-0.2-0.9-0.7-1.6-1.2-2.2c-0.7-0.7-1.6-1-2.6-1 c-0.8,0-1.4,0.2-1.8,0.7c-0.5,0.6-0.8,1.6-0.8,3c0,1.3,0.2,2.3,0.6,2.8c0.4,0.6,1.1,0.8,2.2,0.8c1,0,1.8-0.3,2.4-0.8 c0.6-0.5,1-1.2,1-2L144,73.6L144,73.6L144,73.6z"></path> <path class="st1" d="M154.4,76.7H145v-0.4h0.6c0.8,0,1.2-0.4,1.2-1v-5.2c0-0.7-0.4-1-1.1-1H145v-0.4h9.2v2.9h-0.4 c-0.1-1-0.4-1.6-0.9-2c-0.5-0.4-1.3-0.6-2.4-0.6h-2.3v3.3h0.9c0.6,0,1-0.1,1.4-0.4s0.5-0.7,0.5-1.2v-0.3h0.4V75h-0.4v-0.3 c0-0.6-0.2-1-0.5-1.4c-0.3-0.4-0.8-0.5-1.4-0.5h-0.9v3.6h2.2c1,0,1.7-0.1,2.2-0.4c0.8-0.4,1.3-1.3,1.3-2.5h0.4L154.4,76.7 L154.4,76.7L154.4,76.7z"></path> <path class="st1" d="M168.6,76.7h-4.9v-0.4h0.4c0.8,0,1.2-0.2,1.2-0.7c0-0.1-0.1-0.4-0.3-0.8c-0.1-0.3-0.3-0.6-0.4-0.8h-3.6 c-0.4,0.8-0.6,1.3-0.6,1.4c0,0.6,0.4,0.9,1.2,0.9h0.6v0.4h-4.4v-0.4h0.2c0.5,0,1-0.2,1.5-0.7c0.3-0.3,0.6-0.9,1-1.6l2.8-5.4h0.1 l3.3,6.4c0.2,0.4,0.4,0.8,0.6,0.9c0.3,0.3,0.6,0.4,0.9,0.4h0.3L168.6,76.7L168.6,76.7z M164.4,73.6l-1.6-3.3l-1.7,3.3H164.4z"></path> <path class="st1" d="M179.8,69.1h-0.4c-1,0-1.5,0.6-1.5,1.9v2.5c0,1.1-0.3,1.9-0.8,2.4c-0.6,0.6-1.7,0.9-3.2,0.9 c-1.1,0-1.9-0.1-2.6-0.4c-0.8-0.4-1.3-1-1.3-1.8v-4.4c0-0.7-0.4-1-1.2-1h-0.6v-0.4h4.8v0.4h-0.4c-0.3,0-0.6,0.1-0.8,0.3 s-0.3,0.4-0.3,0.8v3.7c0,1,0.3,1.6,0.8,2.1c0.4,0.3,1,0.5,1.9,0.5c2.1,0,3.1-0.9,3.1-2.7V71c0-0.6-0.1-1.1-0.3-1.4 c-0.3-0.4-0.7-0.5-1.3-0.5h-0.4v-0.4h4.2L179.8,69.1L179.8,69.1z"></path> <path class="st1" d="M189.4,72.3H189c0-2.1-1-3.2-2.9-3.2h-0.4v6.2c0,0.3,0.1,0.6,0.3,0.8c0.2,0.2,0.5,0.3,0.9,0.3h0.6v0.4h-5.2 v-0.4h0.6c0.8,0,1.2-0.4,1.2-1v-6.2h-0.4c-1.9,0-2.8,1.1-2.8,3.2h-0.4v-3.6h8.8L189.4,72.3L189.4,72.3L189.4,72.3z"></path> <path class="st1" d="M201.7,76.7h-5.1v-0.4h0.5c0.9,0,1.3-0.3,1.3-1v-2.5h-4.8v2.5c0,0.3,0.1,0.6,0.4,0.8c0.2,0.2,0.6,0.3,1,0.3 h0.5v0.4h-5.2v-0.4h0.6c0.8,0,1.2-0.4,1.2-1v-5.2c0-0.7-0.4-1-1.1-1h-0.7v-0.4h5v0.4h-0.6c-0.8,0-1.1,0.3-1.1,1v2.3h4.8v-2.3 c0-0.4-0.1-0.7-0.3-0.8c-0.2-0.1-0.6-0.2-1.2-0.2h-0.3v-0.4h5v0.4h-0.5c-0.5,0-0.8,0.1-1,0.3c-0.2,0.1-0.3,0.4-0.3,0.7v5.2 c0,0.7,0.4,1,1.3,1h0.4L201.7,76.7L201.7,76.7z"></path> <path class="st1" d="M211.7,72.7c0,1.2-0.4,2.1-1.4,2.9c-0.9,0.8-2,1.2-3.3,1.2c-1.3,0-2.3-0.4-3.2-1.2c-0.9-0.8-1.3-1.8-1.3-2.9 c0-1.1,0.4-2,1.3-2.8c0.9-0.8,2-1.2,3.2-1.2c1.3,0,2.4,0.4,3.3,1.2C211.2,70.7,211.7,71.6,211.7,72.7z M209.7,72.7 c0-1.3-0.2-2.3-0.6-2.8c-0.4-0.6-1.1-0.9-2-0.9c-0.9,0-1.5,0.3-1.9,0.9c-0.4,0.6-0.6,1.5-0.6,2.8c0,1.2,0.2,2.2,0.6,2.8 c0.4,0.6,1.1,0.9,2,0.9C208.8,76.4,209.7,75.2,209.7,72.7z"></path> <path class="st1" d="M223.3,76.7h-3.2c-0.3-0.4-0.6-1-0.9-1.6c-0.3-0.6-0.6-1.1-0.8-1.5c-0.3-0.5-0.5-0.7-0.7-0.9 c-0.2-0.1-0.5-0.2-0.9-0.2h-1v2.8c0,0.7,0.4,1,1.3,1h0.7v0.4h-5.3v-0.4h0.6c0.8,0,1.2-0.4,1.2-1v-5.2c0-0.7-0.4-1-1.1-1h-0.7v-0.4 h5.7c1.2,0,2.1,0.1,2.7,0.4c0.7,0.3,1.1,0.8,1.1,1.6c0,0.5-0.4,1-1.1,1.3c-0.7,0.3-1.6,0.5-2.8,0.5c0.4,0.4,0.9,0.5,1.5,0.5 c0.1,0,0.3,0,0.4,0c0.8,1.5,1.3,2.3,1.4,2.5c0.4,0.6,0.9,0.9,1.5,0.9h0.4L223.3,76.7L223.3,76.7z M220,70.6c0-0.6-0.2-1-0.6-1.2 c-0.3-0.2-0.7-0.3-1.4-0.3h-2.3v3h1.7c1,0,1.7-0.1,2.1-0.4C219.8,71.5,220,71.2,220,70.6z"></path> <path class="st1" d="M228.8,76.7h-5.1v-0.4h0.6c0.8,0,1.2-0.4,1.2-1v-5.2c0-0.7-0.4-1-1.1-1h-0.7v-0.4h5.1v0.4h-0.6 c-0.8,0-1.1,0.3-1.1,1v5.2c0,0.7,0.4,1,1.3,1h0.5L228.8,76.7L228.8,76.7z"></path> <path class="st1" d="M238.5,72.3h-0.4c0-2.1-1-3.2-2.9-3.2h-0.4v6.2c0,0.3,0.1,0.6,0.3,0.8c0.2,0.2,0.5,0.3,0.9,0.3h0.6v0.4h-5.2 v-0.4h0.6c0.8,0,1.2-0.4,1.2-1v-6.2h-0.4c-1.9,0-2.8,1.1-2.8,3.2h-0.4v-3.6h8.8L238.5,72.3L238.5,72.3L238.5,72.3z"></path> <path class="st1" d="M249.8,69.1h-0.2c-0.5,0-1,0.1-1.4,0.4c-0.3,0.2-0.8,0.7-1.4,1.3c-0.6,0.6-1.1,1.3-1.8,2v2.4 c0,0.3,0.1,0.6,0.4,0.8c0.2,0.2,0.6,0.3,1,0.3h0.5v0.4h-5.4v-0.4h0.8c0.8,0,1.2-0.4,1.2-1V73c-0.5-0.6-1.3-1.6-2.3-2.7 c-0.4-0.5-0.7-0.8-1-0.9c-0.3-0.2-0.7-0.3-1.2-0.3h-0.2v-0.4h5.5v0.4h-0.5c-0.4,0-0.7,0-0.8,0c-0.3,0.1-0.4,0.2-0.4,0.4 c0,0.1,0.1,0.3,0.2,0.4l2,2.6l1.6-1.9c0.3-0.4,0.5-0.7,0.5-0.9c0-0.2-0.1-0.4-0.2-0.5c-0.1-0.1-0.4-0.1-0.6-0.1h-0.7v-0.4h4.4 L249.8,69.1L249.8,69.1z"></path> </g> </svg> 