<?xml version="1.0" encoding="UTF-8"?> <svg xmlns="http://www.w3.org/2000/svg" viewBox="0 0 559.89 96.33"><defs><style>.cls-1{fill:#fff;}</style></defs><g id="Layer_2" data-name="Layer 2"><g id="Layer_1-2" data-name="Layer 1"><path class="cls-1" d="M72.08,23.3,70.39,24C66.87,18.36,57.64,5.22,34.87,5.22H25.24V43.29h7.42c10.92,0,14.05-4,14.31-11.14a12.22,12.22,0,0,0,.13-1.56h2.08l-.13,15.09c0,3.51.13,14,.13,14H47.1A12.22,12.22,0,0,0,47,58.17c-.13-6.77-3.39-10.82-14.31-10.82H25.24V77c.13,7,4.16,8.07,12.62,8.33a8.29,8.29,0,0,0,2,0v1.56h-17C7.68,86.92,0,87.05,0,87.05V85.49l1.3-.13C5.21,85.23,10,84.05,10,77c0-10,.26-22.64.13-35.39s0-20.81-.13-30.18C9.89,4.43,6.9,3.65,2,3A16.14,16.14,0,0,0,0,2.87V1.18s7.94,0,23,.13l41.24.26Z"></path><path class="cls-1" d="M158.58,62.59l-7,24.46L106,86.92c-15.1,0-22.51.13-22.51.13V85.62s1.17,0,2.34-.13C90.8,85,93,84.19,93,77.16c0-10,.27-22.77.14-35.52s0-20.94-.14-30.31c-.13-7-2.21-7.81-7.15-8.46a21.12,21.12,0,0,0-2.34-.13V1.18s7.41,0,22.51.13l41.24.26,5.85,20.82-1.56.65c-1.17-1.95-9-17.22-34.48-17.74l-8.84-.13V43.29h9.49c10.8-.13,13.14-7.24,13.4-12.19V29.54h2.09l-.14,16.27c0,3.51.14,14,.14,14h-1.83a12.43,12.43,0,0,0-.13-1.57c-.65-4.81-2.73-11-13.53-11h-9.49v35.5h9.49c28.24,0,36.17-15.94,39.3-20.75Z"></path><path class="cls-1" d="M248.48,21.35l-1.56.78C240.41,11.33,232.09,5.3,218.17,5.3h-2.34c0,1.56-.26,8.24-.26,34.13,0,27.58.26,36.69.26,36.69.13,7,3.12,8.2,8.06,8.85a16.14,16.14,0,0,0,2,.13v2s-10.41-.13-18-.13c-6.5,0-18.21.13-18.21.13v-2a16.14,16.14,0,0,0,1.95-.13c4.94-.65,8.06-1.83,8.19-8.85,0,0,.39-9.11.39-36.69,0-25.89-.26-32.57-.39-34.13h-2.21c-13.92,0-22.9,6.42-29.14,17.48l-1.56-.65,6-20.82H242Z"></path><path class="cls-1" d="M299.91,5.14C279.09,5,269,13.54,260.45,26.42l-1.57-.78,7.94-24.46h62.32V3.26L278.07,83.07c7.94,0,2.47,0,11.71-.13,12.88-.13,30.12-3.31,41.05-22.82l1.82.52c-.52,1.56-4.42,17.3-6.9,26.41h-68.3V85.36l52-80.22Z"></path><path class="cls-1" d="M418.9,62.59l-7,24.46-45.53-.13c-15.1,0-22.51.13-22.51.13V85.62s1.17,0,2.34-.13c4.95-.52,7.16-1.3,7.16-8.33,0-10,.26-22.77.13-35.52s0-20.94-.13-30.31c-.13-7-2.21-7.81-7.16-8.46a21.12,21.12,0,0,0-2.34-.13V1.18s7.41,0,22.51.13l41.24.26,5.85,20.82-1.56.65c-1.17-1.95-9-17.22-34.47-17.74l-8.85-.13V43.35h9.5c10.8-.13,13.14-7.3,13.4-12.25V29.54h2.08l-.13,16.27c0,3.51.13,14,.13,14h-1.82a12.43,12.43,0,0,0-.13-1.57c-.66-4.81-2.73-11-13.53-11h-9.5V82.85h9.5c28.23,0,36.16-16,39.29-20.78Z"></path><path class="cls-1" d="M544.05,83.67c-1,1.82-6.76,9-17.69,9.49-6.9.39-17.18-.26-27.45-13.4C486.42,64,481,49.58,468.46,46.85c-4.94-1-9.37-.26-11.71,1.43,0,19.64.26,28.23.26,28.23.13,7.28,3.13,7.81,8.07,8.46a16.14,16.14,0,0,0,1.95.13v2s-10.54-.13-17.17-.13c-7.42,0-17.95.13-17.95.13v-2a16.14,16.14,0,0,0,1.95-.13c4.94-.65,7.93-1,8.06-8.33,0,0,.39-8.33.39-32.39S441.92,13,441.92,13c-.26-7.15-3-9.11-7.93-9.76A16.25,16.25,0,0,0,432,3.13V1.18l15.22.13h.52c5.07,0,18.47-1.3,25.76-1.3,21.59-.39,33.95,9.89,33,26.67-.52,10.41-7.67,17-15.48,20.3a51.65,51.65,0,0,1,8.33,10.28c4.94,7.8,10.14,15.22,15.48,20.55,4.81,5.2,9.75,7.29,16.91,7.29,6.38.13,10.15-1.83,11.06-2.48ZM486.94,43.59c3.38-3.9,5.33-9.88,5.59-15.61.78-14.57-6-23.33-22.12-23.33A33.27,33.27,0,0,0,457,7.13c-.13,6.5-.26,17.38-.26,35.6v1.56c2.74-2.6,7.68-4.86,15.61-4.73C476.66,39.69,481.6,40.21,486.94,43.59Z"></path><path class="cls-1" d="M547.91,87.66a6.61,6.61,0,0,1,1.35-2,6.43,6.43,0,0,1,2-1.29,6.08,6.08,0,0,1,2.4-.47,6.23,6.23,0,0,1,2.43.47,6.36,6.36,0,0,1,2,1.29,6.23,6.23,0,0,1,1.34,2,5.81,5.81,0,0,1,.5,2.47,5.66,5.66,0,0,1-.5,2.45,5.93,5.93,0,0,1-1.34,2,6.07,6.07,0,0,1-2,1.31,6.4,6.4,0,0,1-2.43.46,6.25,6.25,0,0,1-2.4-.46,6.14,6.14,0,0,1-2-1.31,6.27,6.27,0,0,1-1.35-2,5.65,5.65,0,0,1-.49-2.45,5.8,5.8,0,0,1,.49-2.47m1,4.56A4.64,4.64,0,0,0,550,93.91,5.25,5.25,0,0,0,555.68,95a5.34,5.34,0,0,0,1.62-1.12,5.08,5.08,0,0,0,1.07-1.69,5.37,5.37,0,0,0,.4-2.09,5.3,5.3,0,0,0-.4-2.09,5,5,0,0,0-1.07-1.67,5.31,5.31,0,0,0-1.62-1.11,5.18,5.18,0,0,0-4,0A4.91,4.91,0,0,0,550,86.37,4.56,4.56,0,0,0,548.94,88a5.29,5.29,0,0,0-.39,2.09,5.36,5.36,0,0,0,.39,2.09m5.11-5.71A3,3,0,0,1,556,87a1.9,1.9,0,0,1,.63,1.56,1.83,1.83,0,0,1-.55,1.45,2.63,2.63,0,0,1-1.38.54l2.08,3.18h-1.2l-2-3.12h-1.2v3.12h-1.14V86.51Zm-.5,3.22.73,0a1.65,1.65,0,0,0,.6-.14,1,1,0,0,0,.43-.36,1.19,1.19,0,0,0,.15-.67,1,1,0,0,0-.14-.58.91.91,0,0,0-.37-.33,1.34,1.34,0,0,0-.51-.17l-.57,0h-1.5v2.3Z"></path></g></g></svg> 